<?xml version="1.0" encoding="UTF-8" standalone="no"?>
<svg
   width="64"
   height="64"
   viewBox="0 0 64 64"
   version="1.1"
   id="svg4"
   sodipodi:docname="logo.svg"
   inkscape:version="1.4.4 (dcaf3e7d9e, 2026-05-05)"
   xmlns:inkscape="http://www.inkscape.org/namespaces/inkscape"
   xmlns:sodipodi="http://sodipodi.sourceforge.net/DTD/sodipodi-0.dtd"
   xmlns="http://www.w3.org/2000/svg"
   xmlns:svg="http://www.w3.org/2000/svg">
  <sodipodi:namedview
     id="namedview4"
     pagecolor="#ffffff"
     bordercolor="#000000"
     borderopacity="0.25"
     inkscape:showpageshadow="2"
     inkscape:pageopacity="0.0"
     inkscape:pagecheckerboard="0"
     inkscape:deskcolor="#d1d1d1"
     inkscape:zoom="8.6620581"
     inkscape:cx="34.691524"
     inkscape:cy="33.941125"
     inkscape:window-width="1920"
     inkscape:window-height="995"
     inkscape:window-x="0"
     inkscape:window-y="0"
     inkscape:window-maximized="1"
     inkscape:current-layer="svg4"
     showgrid="false" />
  <defs
     id="defs2">
    <linearGradient
       id="grad1"
       x1="0%"
       y1="0%"
       x2="100%"
       y2="100%">
      <stop
         offset="0%"
         style="stop-color:#4CAF50;stop-opacity:1"
         id="stop1" />
      <stop
         offset="100%"
         style="stop-color:#2E7D32;stop-opacity:1"
         id="stop2" />
    </linearGradient>
  </defs>
  <!-- Background circle -->
  <circle
     cx="32"
     cy="32"
     r="30"
     fill="url(#grad1)"
     stroke="#1B5E20"
     stroke-width="2"
     id="circle2" />
  <!-- Plugin icon - stylized P -->
  <!-- Small gear icon -->
  <path
     id="path1"
     style="fill:#ffffff;fill-opacity:1;stroke:#1b5e20;stroke-width:1.57452;stroke-dasharray:none;stroke-opacity:1"
     d="m 20.260958,4.7656012 a 31.761405,31.221588 0 0 0 -5.417637,2.6749745 l 5.430044,5.3377533 c -0.909685,2.411391 -0.381013,5.227459 1.590138,7.16511 0.59842,0.588248 1.278975,1.046832 2.005765,1.374076 v 24.458942 c -0.726791,0.327243 -1.407345,0.785826 -2.005765,1.374075 -2.69743,2.651584 -2.697431,6.950682 0,9.602265 2.697428,2.651585 7.072922,2.651585 9.770354,0 2.697427,-2.651583 2.697427,-6.950682 0,-9.602265 -0.59842,-0.58825 -1.281044,-1.046831 -2.007833,-1.374075 V 21.974063 l 9.369199,9.207927 c -0.909685,2.411391 -0.381015,5.229494 1.590138,7.167144 2.697428,2.651585 7.072924,2.651585 9.770355,0 2.697429,-2.651583 2.697429,-6.950681 0,-9.602264 C 48.38457,26.809229 45.517739,26.2875 43.064654,27.181725 L 33.223995,17.50832 C 34.133681,15.096927 33.605008,12.280858 31.633857,10.343208 29.662714,8.4055648 26.795881,7.8818066 24.342795,8.7760303 Z" />
</svg>
